<?xml version="1.0" encoding="iso-8859-1"?>
<!-- Uploaded to: SVG Repo, www.svgrepo.com, Generator: SVG Repo Mixer Tools -->
<!DOCTYPE svg PUBLIC "-//W3C//DTD SVG 1.1//EN" "http://www.w3.org/Graphics/SVG/1.1/DTD/svg11.dtd">
<svg fill="#000000" version="1.1" id="Capa_1" xmlns="http://www.w3.org/2000/svg" xmlns:xlink="http://www.w3.org/1999/xlink" 
	 width="800px" height="800px" viewBox="0 0 458.775 458.776"
	 xml:space="preserve">
<g>
	<path d="M448.787,266.544V225.03c0-13.045-10.576-23.62-23.621-23.62h-59.938l-84.258-100.888
		c-3.517-4.208-8.717-6.641-14.199-6.641H68.8c-10.217,0-18.5,8.283-18.5,18.5v66.553l-1.439-1.975
		c-2.768-3.358-6.961-5.5-11.654-5.5h-22.11C6.759,171.459,0,178.219,0,186.557v94.788c0,8.338,6.759,15.099,15.097,15.099h6.016
		c3.062,9.495,11.967,16.366,22.481,16.366h6.397c5.109,29.581,30.892,52.084,61.934,52.084c31.043,0,56.825-22.503,61.935-52.084
		h110.435c5.109,29.581,30.893,52.084,61.936,52.084c31.025,0,56.797-22.479,61.926-52.036h35.705
		c8.236,0,14.914-6.679,14.914-14.916V280.61C458.773,274.1,454.6,268.581,448.787,266.544z M312.527,196.03H200.426v-65.149h57.691
		L312.527,196.03z M87.3,130.881h76.126v65.149H87.3V130.881z M111.925,330.401c-15.639,0-28.361-12.724-28.361-28.363
		c0-15.637,12.723-28.361,28.361-28.361c15.64,0,28.362,12.725,28.362,28.361C140.287,317.677,127.565,330.401,111.925,330.401z
		 M346.229,330.401c-15.637,0-28.359-12.724-28.359-28.363c0-15.637,12.723-28.361,28.359-28.361
		c15.641,0,28.361,12.725,28.361,28.361C374.59,317.677,361.867,330.401,346.229,330.401z"/>
</g>
</svg>